<?xml version="1.0" standalone="no"?>
<!DOCTYPE svg PUBLIC "-//W3C//DTD SVG 20010904//EN"
 "http://www.w3.org/TR/2001/REC-SVG-20010904/DTD/svg10.dtd">
<svg version="1.0" xmlns="http://www.w3.org/2000/svg"
 width="2000.000000pt" height="2000.000000pt" viewBox="0 0 2000.000000 2000.000000"
 preserveAspectRatio="xMidYMid meet">
<metadata>
Created by potrace 1.16, written by Peter Selinger 2001-2019
</metadata>
<g transform="translate(0.000000,2000.000000) scale(0.100000,-0.100000)"
fill="#000000" stroke="none">
<path d="M9168 18832 c-533 -317 -968 -579 -968 -582 0 -3 1778 -1103 3950
-2445 l3949 -2440 -2 -1789 -2 -1790 -2872 -1650 -2872 -1651 -1 -1297 c0
-714 3 -1298 8 -1298 4 1 1751 1017 3882 2258 l3875 2257 2 3130 3 3130 -3981
2370 c-2190 1304 -3986 2371 -3993 2372 -6 1 -446 -257 -978 -575z"/>
<path d="M4613 16248 l-2872 -1723 0 -4380 0 -4380 1140 -645 c627 -355 1146
-646 1154 -648 13 -3 15 556 15 4446 l0 4449 1633 993 c897 546 1639 998 1647
1003 11 6 764 -426 2900 -1664 1587 -919 2896 -1676 2910 -1682 23 -9 130 51
1059 594 569 333 1036 609 1038 614 1 6 -1713 1074 -3810 2375 l-3812 2365
-65 3 -65 3 -2872 -1723z"/>
<path d="M4902 8415 l3 -4527 2795 -1649 c1537 -907 2800 -1648 2806 -1646 6
1 1753 1054 3882 2341 l3872 2339 0 1189 0 1190 -42 -25 c-24 -13 -1800 -1049
-3947 -2302 -2221 -1295 -3911 -2275 -3920 -2272 -15 4 -3269 1982 -3283 1995
-3 4 0 1384 7 3067 8 1683 14 3168 15 3300 l0 241 -1082 639 c-595 352 -1088
641 -1095 643 -11 3 -13 -781 -11 -4523z"/>
<path d="M12793 11222 l-2583 -1436 0 -1233 c0 -678 3 -1233 7 -1233 4 0 1169
674 2590 1498 l2583 1497 0 1173 c0 644 -3 1172 -7 1171 -5 0 -1170 -647
-2590 -1437z"/>
</g>
</svg>
